<svg xmlns="http://www.w3.org/2000/svg" width="124.259" height="116.747" viewBox="0 0 124.259 116.747">
  <g id="Groupe_80" data-name="Groupe 80" transform="translate(-542.863 1972.58)">
    <g id="Groupe_72" data-name="Groupe 72" transform="translate(581.625 -1943.587)">
      <path id="Tracé_89" data-name="Tracé 89" d="M810.01-1751.716l-11.118-29.075-.351-.919-5.284-13.818v-11.981H780.59v11.981l-14.75,38.577h0v0l-.1.255-1.9,4.978a4.248,4.248,0,0,0,.811,4.366,4.194,4.194,0,0,0,3.167,1.413h38.216a4.261,4.261,0,0,0,3.509-1.844A4.262,4.262,0,0,0,810.01-1751.716Zm-1.728-1.27h0a2.026,2.026,0,0,1-1.21.363,2.025,2.025,0,0,1-1.209-.363,3.159,3.159,0,0,0-1.8-.524,3.16,3.16,0,0,0-1.8.524,2.027,2.027,0,0,1-1.21.363,2.025,2.025,0,0,1-1.209-.363,3.158,3.158,0,0,0-1.8-.524,3.161,3.161,0,0,0-1.8.524,2.025,2.025,0,0,1-1.209.363,2.025,2.025,0,0,1-1.209-.363,3.162,3.162,0,0,0-1.8-.524,3.162,3.162,0,0,0-1.8.523,2.862,2.862,0,0,1-.509.256,25.025,25.025,0,0,0-4.127-2.716,2.43,2.43,0,0,1,.416-.033,2.03,2.03,0,0,1,1.211.363,3.162,3.162,0,0,0,1.8.523,3.16,3.16,0,0,0,1.8-.523,2.027,2.027,0,0,1,1.209-.363,2.03,2.03,0,0,1,1.211.363,3.162,3.162,0,0,0,1.8.523,3.162,3.162,0,0,0,1.8-.523,2.03,2.03,0,0,1,1.211-.363,2.026,2.026,0,0,1,1.209.363,3.161,3.161,0,0,0,1.8.523,3.163,3.163,0,0,0,1.8-.523,2.028,2.028,0,0,1,1.209-.363,2.026,2.026,0,0,1,1.209.363,3.162,3.162,0,0,0,1.8.523,3.627,3.627,0,0,0,.579-.045Zm-26.532-42.329v-11.034H792.1v11.034l5.2,13.594H791.2a.58.58,0,0,0-.58.58.58.58,0,0,0,.58.58h6.537l9.484,24.8c-.049,0-.1.005-.15.005a2.028,2.028,0,0,1-1.21-.362,3.159,3.159,0,0,0-1.8-.523,3.162,3.162,0,0,0-1.8.523,2.031,2.031,0,0,1-1.211.363,2.029,2.029,0,0,1-1.21-.362,3.159,3.159,0,0,0-1.8-.523,3.163,3.163,0,0,0-1.8.523,2.029,2.029,0,0,1-1.21.362,2.028,2.028,0,0,1-1.209-.362,3.164,3.164,0,0,0-1.8-.523,3.159,3.159,0,0,0-1.8.523,2.028,2.028,0,0,1-1.209.362,2.029,2.029,0,0,1-1.21-.362,3.163,3.163,0,0,0-1.8-.523,3.161,3.161,0,0,0-1.8.521,24.839,24.839,0,0,0-3.205-1.185v-4.828a4.164,4.164,0,0,0,3.016,1.292V-1762a3.019,3.019,0,0,1-3.016-3.011v-2.344a4.164,4.164,0,0,0,3.016,1.292v-1.16a3.019,3.019,0,0,1-3.016-3.011v-.005h-1.161a3.019,3.019,0,0,1-3.016,3.016v1.16a4.163,4.163,0,0,0,3.016-1.292v2.34h0a3.019,3.019,0,0,1-3.016,3.016v1.16a4.163,4.163,0,0,0,3.016-1.292v4.518a25.053,25.053,0,0,0-5.873-.692,25.026,25.026,0,0,0-6.73.917ZM767.815-1747.1c-.079,0-.157,0-.234-.009h-.01a3.132,3.132,0,0,1-.456-.068l-.006,0q-.11-.025-.218-.058h0a3.017,3.017,0,0,1-.417-.164l-.018-.009a3.007,3.007,0,0,1-.379-.221l-.012-.008a16.363,16.363,0,0,1,6.877-2q.518-.033,1.039-.033a16.431,16.431,0,0,1,4.121.522q.287.074.571.159h0a16.245,16.245,0,0,1,4.135,1.893Zm16.989,0a17.416,17.416,0,0,0-5.8-3,17.4,17.4,0,0,0-1.851-.444,17.662,17.662,0,0,0-3.173-.286,17.533,17.533,0,0,0-8.752,2.335,3.085,3.085,0,0,1-.323-2.75,19.888,19.888,0,0,1,9.075-2.159,19.959,19.959,0,0,1,8.506,1.88l.087.04a20.163,20.163,0,0,1,3.6,2.191h0a20.283,20.283,0,0,1,2.444,2.2Zm5.368,0a21.488,21.488,0,0,0-3.3-3.122h0a21.307,21.307,0,0,0-3.9-2.359l-.119-.055h0a21.11,21.11,0,0,0-8.88-1.934,21.381,21.381,0,0,0-8.479,1.757l1.227-3.21a23.827,23.827,0,0,1,7.252-1.122,23.642,23.642,0,0,1,10.026,2.2,23.824,23.824,0,0,1,5.213,3.295,24.074,24.074,0,0,1,2.355,2.241,23.939,23.939,0,0,1,1.868,2.307Zm18.411-1.341a3.056,3.056,0,0,1-2.552,1.341H794.847q-.5-.751-1.05-1.467a3.114,3.114,0,0,0,1.241.232,3.161,3.161,0,0,0,1.8-.523,2.03,2.03,0,0,1,1.211-.363,2.026,2.026,0,0,1,1.209.363,3.162,3.162,0,0,0,1.8.523,3.165,3.165,0,0,0,1.8-.523,2.026,2.026,0,0,1,1.209-.363,2.026,2.026,0,0,1,1.209.363,3.162,3.162,0,0,0,1.8.523,3.111,3.111,0,0,0,1.735-.486A3.234,3.234,0,0,1,808.583-1748.439Zm-.3-1.416a2.028,2.028,0,0,1-1.209.363,2.026,2.026,0,0,1-1.21-.363,3.161,3.161,0,0,0-1.8-.523,3.161,3.161,0,0,0-1.8.523,2.03,2.03,0,0,1-1.211.363,2.027,2.027,0,0,1-1.21-.363,3.161,3.161,0,0,0-1.8-.523,3.164,3.164,0,0,0-1.8.523,2.027,2.027,0,0,1-1.21.363,2.026,2.026,0,0,1-1.209-.363,3.162,3.162,0,0,0-1.573-.516c-.5-.533-1.023-1.047-1.569-1.537l.133-.078a2.027,2.027,0,0,1,1.209-.363,2.028,2.028,0,0,1,1.211.363,3.157,3.157,0,0,0,1.8.524,3.158,3.158,0,0,0,1.8-.524,2.028,2.028,0,0,1,1.21-.363,2.026,2.026,0,0,1,1.209.363,3.159,3.159,0,0,0,1.8.524,3.162,3.162,0,0,0,1.8-.524,2.026,2.026,0,0,1,1.209-.363,2.025,2.025,0,0,1,1.209.363,3.159,3.159,0,0,0,1.8.524,3.063,3.063,0,0,0,1.63-.426l.224.585a3.128,3.128,0,0,1,.207,1.052A3.635,3.635,0,0,0,808.281-1749.855Z" transform="translate(-763.555 1807.51)" fill="#1a1f22"/>
      <path id="Tracé_90" data-name="Tracé 90" d="M868.155-1675.315h7.229a.58.58,0,0,0,.58-.58.58.58,0,0,0-.58-.58h-7.229a.58.58,0,0,0-.58.58A.58.58,0,0,0,868.155-1675.315Z" transform="translate(-849.305 1699.49)" fill="#1a1f22"/>
      <path id="Tracé_91" data-name="Tracé 91" d="M924.866-1675.315h2.54a.58.58,0,0,0,.58-.58.58.58,0,0,0-.58-.58h-2.54a.58.58,0,0,0-.58.58A.58.58,0,0,0,924.866-1675.315Z" transform="translate(-896.056 1699.49)" fill="#1a1f22"/>
      <path id="Tracé_92" data-name="Tracé 92" d="M890.765-1660.681h-2.54a.58.58,0,0,0-.58.58.58.58,0,0,0,.58.58h2.54a.58.58,0,0,0,.58-.58A.581.581,0,0,0,890.765-1660.681Z" transform="translate(-865.85 1686.47)" fill="#1a1f22"/>
      <path id="Tracé_93" data-name="Tracé 93" d="M912.983-1607.687a3.019,3.019,0,0,1,3.016,3.016h1.16a3.019,3.019,0,0,1,3.016-3.016v-1.16a4.177,4.177,0,0,0-3.6,2.056,4.178,4.178,0,0,0-3.6-2.056Z" transform="translate(-886.738 1643.74)" fill="#1a1f22"/>
    </g>
    <g id="Groupe_73" data-name="Groupe 73" transform="translate(542.863 -1910.214)">
      <path id="Tracé_94" data-name="Tracé 94" d="M543.443-1616.34h7.229a.58.58,0,0,0,.58-.58.58.58,0,0,0-.58-.58h-7.229a.58.58,0,0,0-.58.58A.58.58,0,0,0,543.443-1616.34Z" transform="translate(-542.863 1617.5)" fill="#1a1f22"/>
      <path id="Tracé_95" data-name="Tracé 95" d="M600.154-1616.34h2.54a.58.58,0,0,0,.58-.58.58.58,0,0,0-.58-.58h-2.54a.58.58,0,0,0-.58.58A.58.58,0,0,0,600.154-1616.34Z" transform="translate(-589.613 1617.5)" fill="#1a1f22"/>
      <path id="Tracé_96" data-name="Tracé 96" d="M598.549-1602.18H591.32a.58.58,0,0,0-.58.58.58.58,0,0,0,.58.58h7.229a.58.58,0,0,0,.58-.58A.58.58,0,0,0,598.549-1602.18Z" transform="translate(-582.331 1604.871)" fill="#1a1f22"/>
      <path id="Tracé_97" data-name="Tracé 97" d="M563.847-1602.18h-2.54a.58.58,0,0,0-.58.58.58.58,0,0,0,.58.58h2.54a.58.58,0,0,0,.58-.58A.58.58,0,0,0,563.847-1602.18Z" transform="translate(-557.589 1604.871)" fill="#1a1f22"/>
    </g>
    <g id="Groupe_74" data-name="Groupe 74" transform="translate(650.324 -1910.214)">
      <path id="Tracé_98" data-name="Tracé 98" d="M1210.378-1616.34h-7.229a.58.58,0,0,1-.58-.58.58.58,0,0,1,.58-.58h7.229a.58.58,0,0,1,.58.58A.58.58,0,0,1,1210.378-1616.34Z" transform="translate(-1194.16 1617.5)" fill="#1a1f22"/>
      <path id="Tracé_99" data-name="Tracé 99" d="M1175.676-1616.34h-2.54a.58.58,0,0,1-.58-.58.58.58,0,0,1,.58-.58h2.54a.58.58,0,0,1,.58.58A.58.58,0,0,1,1175.676-1616.34Z" transform="translate(-1169.419 1617.5)" fill="#1a1f22"/>
      <path id="Tracé_100" data-name="Tracé 100" d="M1155.273-1602.18h7.229a.58.58,0,0,1,.58.58.58.58,0,0,1-.58.58h-7.229a.58.58,0,0,1-.58-.58A.58.58,0,0,1,1155.273-1602.18Z" transform="translate(-1154.693 1604.871)" fill="#1a1f22"/>
      <path id="Tracé_101" data-name="Tracé 101" d="M1211.984-1602.18h2.54a.58.58,0,0,1,.58.58.58.58,0,0,1-.58.58h-2.54a.58.58,0,0,1-.58-.58A.58.58,0,0,1,1211.984-1602.18Z" transform="translate(-1201.443 1604.871)" fill="#1a1f22"/>
    </g>
    <g id="Groupe_76" data-name="Groupe 76" transform="translate(543.999 -1972.58)">
      <g id="Groupe_75" data-name="Groupe 75" transform="translate(0)">
        <path id="Tracé_102" data-name="Tracé 102" d="M549.661-1761.009a.315.315,0,0,1-.3-.449l.544-1.569a.371.371,0,0,1,.345-.224l7.418.586.024-.068-6.084-5.147a.291.291,0,0,1-.087-.355l.106-.307a.291.291,0,0,1,.288-.225l7.97-.292.024-.068-6.2-4.1a.37.37,0,0,1-.132-.39l.544-1.568a.314.314,0,0,1,.516-.165l10.34,7.2a.347.347,0,0,1,.132.39l-.095.273a.306.306,0,0,1-.288.225l-8.782.374-.029.085,6.677,5.7a.307.307,0,0,1,.087.355l-.095.273a.347.347,0,0,1-.345.224Z" transform="translate(-549.333 1810.054)" fill="#1a1f22"/>
        <path id="Tracé_103" data-name="Tracé 103" d="M603-1844.279a.343.343,0,0,1-.067-.48l4.424-5.864a.343.343,0,0,1,.48-.067l1.181.891a.342.342,0,0,1,.067.48l-3.217,4.265,2.363,1.782,2.685-3.558a.355.355,0,0,1,.48-.067l1.2.9a.343.343,0,0,1,.067.48l-2.685,3.559,2.521,1.9,3.217-4.265a.343.343,0,0,1,.48-.067l1.181.891a.343.343,0,0,1,.067.48l-4.424,5.864a.342.342,0,0,1-.48.067Z" transform="translate(-593.463 1872.156)" fill="#1a1f22"/>
        <path id="Tracé_104" data-name="Tracé 104" d="M837.141-1969.87l-2.745.3a.343.343,0,0,1-.378-.3l-.16-1.471a.343.343,0,0,1,.3-.378l7.84-.855a.342.342,0,0,1,.378.3l.161,1.471a.342.342,0,0,1-.3.378l-2.745.3,1.1,10.065a.355.355,0,0,1-.3.378l-1.668.182a.355.355,0,0,1-.378-.3Z" transform="translate(-783.883 1972.58)" fill="#1a1f22"/>
        <path id="Tracé_105" data-name="Tracé 105" d="M915.388-1971.807a.355.355,0,0,1,.395-.282l1.656.275a.343.343,0,0,1,.282.394l-.783,4.718,5.8.964.783-4.718a.343.343,0,0,1,.394-.282l1.638.272a.355.355,0,0,1,.282.394l-1.957,11.786a.355.355,0,0,1-.394.282l-1.638-.272a.343.343,0,0,1-.282-.394l.816-4.914-5.8-.964-.816,4.914a.343.343,0,0,1-.394.282l-1.656-.275a.355.355,0,0,1-.282-.395Z" transform="translate(-849.478 1972.179)" fill="#1a1f22"/>
        <path id="Tracé_106" data-name="Tracé 106" d="M1056.493-1913.394a.342.342,0,0,1,.479-.075l1.341.979a.355.355,0,0,1,.075.479l-5.968,8.177,3.717,2.713a.342.342,0,0,1,.075.479l-.872,1.2a.343.343,0,0,1-.479.075l-5.335-3.894a.343.343,0,0,1-.075-.479Z" transform="translate(-961.556 1923.906)" fill="#1a1f22"/>
        <path id="Tracé_107" data-name="Tracé 107" d="M1159.175-1775.177a.342.342,0,0,1,.448.184l1.592,3.814a3.536,3.536,0,0,1-1.614,4.8,3.438,3.438,0,0,1-3.413-.727,3.243,3.243,0,0,1-1.811,3.3,3.649,3.649,0,0,1-4.73-2.289l-1.682-4.03a.343.343,0,0,1,.184-.449Zm-7.639,8.077a1.61,1.61,0,0,0,2.141.866,1.747,1.747,0,0,0,.74-2.3l-.758-1.815-2.964,1.238Zm4.7-2.235a1.547,1.547,0,0,0,2.1.807,1.474,1.474,0,0,0,.818-2.023l-.744-1.782-2.915,1.216Z" transform="translate(-1042.8 1809.87)" fill="#1a1f22"/>
        <path id="Tracé_108" data-name="Tracé 108" d="M690.923-1893.458a.52.52,0,0,0,.636-.032l1.246-.956a.319.319,0,0,0-.041-.56l-2.795-1.479-1.986-1.051-7.036-3.725a.3.3,0,0,0-.364.03l-.143.109a.323.323,0,0,0-.123.344l2.276,10.1.67,2.968a.313.313,0,0,0,.36.261.365.365,0,0,0,.169-.075l1.248-.957a.545.545,0,0,0,.2-.606l-.333-1.429,0,0-.057-.234a.015.015,0,0,1,0-.009,14.9,14.9,0,0,1,3.219-4.237.013.013,0,0,1,.015,0Zm-6.734-.117a.013.013,0,0,1-.023,0l-.95-3.958.044-.034,2.933,1.563a.013.013,0,0,1,0,.021A16.9,16.9,0,0,0,684.189-1893.575Z" transform="translate(-657.305 1913.826)" fill="#1a1f22"/>
        <path id="Tracé_109" data-name="Tracé 109" d="M1103.514-1828.217l1.426-2.823,1.013-2.005,3.589-7.106a.3.3,0,0,0-.037-.363l-.112-.141a.323.323,0,0,0-.346-.116L1099-1838.3l-2.955.726a.313.313,0,0,0-.254.365.364.364,0,0,0,.079.168l.981,1.229a.545.545,0,0,0,.61.184l1.422-.36,0,0,.233-.061a.013.013,0,0,1,.009,0,14.9,14.9,0,0,1,4.3,3.137.013.013,0,0,1,0,.016l-.807,1.586-.017-.021-.666,1.307a.52.52,0,0,0,.044.635l.98,1.228A.319.319,0,0,0,1103.514-1828.217Zm-1.595-8.546a.013.013,0,0,1,0-.023l3.939-1.026.034.043-1.507,2.962a.013.013,0,0,1-.021,0A16.889,16.889,0,0,0,1101.919-1836.763Z" transform="translate(-999.804 1863.931)" fill="#1a1f22"/>
        <path id="Tracé_110" data-name="Tracé 110" d="M760.159-1941.866a.311.311,0,0,0,.016-.573,12.1,12.1,0,0,1-4.211-3.278l.026-.012a3.981,3.981,0,0,0,1.181-4.36,3.907,3.907,0,0,0-5.064-2.2l-4.814,1.855a.343.343,0,0,0-.2.443l4.295,11.142a.342.342,0,0,0,.443.2l1.536-.592a.357.357,0,0,0,.2-.46l-1.645-4.267a.013.013,0,0,1,.008-.017l1.84-.709a.013.013,0,0,1,.015,0,14.389,14.389,0,0,0,3.936,3.588.433.433,0,0,0,.383.034Zm-10.19-7.284,2.694-1.039a1.8,1.8,0,0,1,2.358,1.049,1.836,1.836,0,0,1-1.031,2.286l-2.731,1.053a.013.013,0,0,1-.017-.008l-1.281-3.325A.014.014,0,0,1,749.97-1949.151Z" transform="translate(-712.344 1956.077)" fill="#1a1f22"/>
      </g>
      <circle id="Ellipse_47" data-name="Ellipse 47" cx="1.395" cy="1.395" r="1.395" transform="translate(108.892 49.588)" fill="#1a1f22"/>
    </g>
    <g id="Groupe_78" data-name="Groupe 78" transform="translate(553.9 -1893.262)">
      <g id="Groupe_77" data-name="Groupe 77" transform="translate(0)">
        <path id="Tracé_111" data-name="Tracé 111" d="M606.021-1519.583l.748.094a.2.2,0,0,1,.146.23,2.363,2.363,0,0,0,.025,1.2.5.5,0,0,0,.646.324c.307-.126.436-.478.429-1.056a2.056,2.056,0,0,1,1.033-2.082,1.64,1.64,0,0,1,2.149,1.091,2.938,2.938,0,0,1,.094,1.79c-.015.109-.153.148-.216.14l-.716-.142c-.1-.018-.221-.123-.2-.209a2.478,2.478,0,0,0,.009-1.226.458.458,0,0,0-.562-.307c-.271.111-.385.414-.382,1.088a2.092,2.092,0,0,1-1.06,2.162,1.736,1.736,0,0,1-2.222-1.1,2.509,2.509,0,0,1-.113-1.876C605.874-1519.565,605.894-1519.6,606.021-1519.583Z" transform="translate(-605.703 1520.982)" fill="#161615"/>
        <path id="Tracé_112" data-name="Tracé 112" d="M623.529-1492.452a.156.156,0,0,1,.2.056l.467.816a.15.15,0,0,1-.056.2l-1.729.99,1.123,1.962,1.729-.99a.15.15,0,0,1,.205.056l.467.816a.156.156,0,0,1-.056.205l-4.541,2.6a.155.155,0,0,1-.2-.056l-.467-.816a.15.15,0,0,1,.056-.205l1.8-1.033-1.123-1.962-1.8,1.033a.15.15,0,0,1-.2-.056l-.467-.816a.155.155,0,0,1,.056-.2Z" transform="translate(-616.593 1497.478)" fill="#161615"/>
        <path id="Tracé_113" data-name="Tracé 113" d="M652.558-1451.756a2.84,2.84,0,0,1-.476,4,2.827,2.827,0,0,1-3.99-.474,2.82,2.82,0,0,1,.468-3.986A2.834,2.834,0,0,1,652.558-1451.756Zm-3.474,2.743a1.584,1.584,0,0,0,2.214.266,1.592,1.592,0,0,0,.267-2.225,1.591,1.591,0,0,0-2.222-.25A1.582,1.582,0,0,0,649.084-1449.012Z" transform="translate(-640.137 1464.805)" fill="#161615"/>
        <path id="Tracé_114" data-name="Tracé 114" d="M676.831-1424.479a.15.15,0,0,1,.213,0l1.37,1.324a1.768,1.768,0,0,1,.059,2.486,1.778,1.778,0,0,1-2.5.054l-.6-.577-1.291,1.336a.156.156,0,0,1-.212,0l-.671-.648a.15.15,0,0,1,0-.212Zm-.117,2.976a.621.621,0,0,0,.883-.015.6.6,0,0,0-.042-.854l-.54-.522-.84.869Z" transform="translate(-661.306 1441.466)" fill="#161615"/>
        <path id="Tracé_115" data-name="Tracé 115" d="M703.653-1401.983a.15.15,0,0,1,.21-.029l1.516,1.154a1.768,1.768,0,0,1,.351,2.463,1.778,1.778,0,0,1-2.48.347l-.66-.5-1.125,1.478a.155.155,0,0,1-.211.028l-.742-.565a.15.15,0,0,1-.029-.211Zm.233,2.969a.621.621,0,0,0,.875-.119.6.6,0,0,0-.142-.844l-.6-.455-.733.962Z" transform="translate(-683.81 1422.932)" fill="#161615"/>
        <path id="Tracé_116" data-name="Tracé 116" d="M732.884-1382.588a.156.156,0,0,1,.207-.049l.807.5a.155.155,0,0,1,.049.207l-2.746,4.454a.155.155,0,0,1-.207.049l-.807-.5a.156.156,0,0,1-.049-.207Z" transform="translate(-708.265 1406.953)" fill="#161615"/>
        <path id="Tracé_117" data-name="Tracé 117" d="M754.16-1371.836a.148.148,0,0,1,.2-.065l.179.084,1.563,4.088.007,0,1.194-2.539a.15.15,0,0,1,.2-.072l.858.4a.155.155,0,0,1,.072.2l-2.263,4.814a.148.148,0,0,1-.2.065l-.114-.054a.231.231,0,0,1-.076-.08l-1.491-4.167-.007,0-1.254,2.668a.15.15,0,0,1-.2.072l-.851-.4a.155.155,0,0,1-.072-.2Z" transform="translate(-726.215 1398.097)" fill="#161615"/>
        <path id="Tracé_118" data-name="Tracé 118" d="M799.3-1352.063a3.051,3.051,0,0,1,1.628,1.273.139.139,0,0,1-.047.209l-.791.453a.168.168,0,0,1-.207-.055,1.453,1.453,0,0,0-.879-.665,1.584,1.584,0,0,0-1.955,1.073,1.575,1.575,0,0,0,1.038,1.961,1.867,1.867,0,0,0,.71.084l.134-.438-.476-.145a.144.144,0,0,1-.1-.18l.228-.749a.145.145,0,0,1,.187-.1l1.519.463a.149.149,0,0,1,.092.185l-.613,2.036a.2.2,0,0,1-.1.1,3.992,3.992,0,0,1-2.024-.08,2.818,2.818,0,0,1-1.888-3.534A2.832,2.832,0,0,1,799.3-1352.063Z" transform="translate(-762.273 1381.835)" fill="#161615"/>
        <path id="Tracé_119" data-name="Tracé 119" d="M862.062-1340.963a.15.15,0,0,1,.162-.138l2.356.191a1.719,1.719,0,0,1,1.58,1.84,1.735,1.735,0,0,1-1.294,1.49l.918,2.089a.15.15,0,0,1-.152.218l-1.048-.085a.146.146,0,0,1-.12-.081l-.879-2.173-.544-.044-.162,2.009a.155.155,0,0,1-.162.138l-.938-.076a.15.15,0,0,1-.138-.162Zm2.225,2.4a.634.634,0,0,0,.649-.582.605.605,0,0,0-.55-.647l-1.166-.094-.1,1.229Z" transform="translate(-816.687 1372.695)" fill="#161615"/>
        <path id="Tracé_120" data-name="Tracé 120" d="M901.07-1339.916a.15.15,0,0,1,.143-.157l3.269-.154a.15.15,0,0,1,.157.143l.04.861a.15.15,0,0,1-.143.157l-2.187.1.046.979,1.8-.085a.155.155,0,0,1,.157.143l.04.861a.15.15,0,0,1-.143.157l-1.8.085.05,1.066,2.187-.1a.15.15,0,0,1,.157.143l.041.861a.15.15,0,0,1-.143.157l-3.269.154a.15.15,0,0,1-.157-.143Z" transform="translate(-849.192 1371.975)" fill="#161615"/>
        <path id="Tracé_121" data-name="Tracé 121" d="M934.079-1338.632l.26-.708a.2.2,0,0,1,.258-.09,2.358,2.358,0,0,0,1.178.247.5.5,0,0,0,.461-.556c-.054-.328-.368-.532-.932-.656-.714-.155-1.642-.539-1.8-1.475a1.64,1.64,0,0,1,1.547-1.848,2.939,2.939,0,0,1,1.765.311c.1.039.11.182.088.242l-.3.666c-.041.095-.169.188-.249.145a2.477,2.477,0,0,0-1.192-.285.458.458,0,0,0-.426.478c.047.289.317.469.974.617s1.693.459,1.867,1.519a1.736,1.736,0,0,1-1.576,1.917,2.51,2.51,0,0,1-1.853-.312C934.063-1338.485,934.035-1338.513,934.079-1338.632Z" transform="translate(-875.916 1374.879)" fill="#161615"/>
        <path id="Tracé_122" data-name="Tracé 122" d="M965.424-1350.514a.15.15,0,0,1,.1-.186l1.831-.525a1.768,1.768,0,0,1,2.184,1.191,1.778,1.778,0,0,1-1.2,2.2l-.8.229.512,1.786a.156.156,0,0,1-.1.186l-.9.257a.15.15,0,0,1-.186-.1Zm2.52,1.588a.621.621,0,0,0,.428-.772.6.6,0,0,0-.762-.39l-.722.207.333,1.162Z" transform="translate(-902.238 1381.098)" fill="#161615"/>
        <path id="Tracé_123" data-name="Tracé 123" d="M1001.624-1364.651a2.84,2.84,0,0,1,3.753,1.465,2.826,2.826,0,0,1-1.461,3.743,2.82,2.82,0,0,1-3.74-1.454A2.833,2.833,0,0,1,1001.624-1364.651Zm1.783,4.051a1.583,1.583,0,0,0,.813-2.076,1.592,1.592,0,0,0-2.086-.817,1.59,1.59,0,0,0-.8,2.087A1.582,1.582,0,0,0,1003.407-1360.6Z" transform="translate(-930.689 1392.31)" fill="#161615"/>
        <path id="Tracé_124" data-name="Tracé 124" d="M1035.354-1387.134a.148.148,0,0,1,.051-.2l.167-.106,4.287.88.007,0-1.5-2.371a.15.15,0,0,1,.047-.207l.8-.507a.155.155,0,0,1,.207.047l2.842,4.5a.149.149,0,0,1-.051.2l-.107.068a.233.233,0,0,1-.108.021l-4.315-.984-.007,0,1.575,2.492a.15.15,0,0,1-.047.207l-.8.5a.156.156,0,0,1-.207-.047Z" transform="translate(-959.874 1412.734)" fill="#161615"/>
        <path id="Tracé_125" data-name="Tracé 125" d="M1074.167-1402.612l-.133-.742a.2.2,0,0,1,.177-.208,2.362,2.362,0,0,0,1.141-.382.5.5,0,0,0,.117-.713c-.212-.255-.586-.273-1.136-.094a2.057,2.057,0,0,1-2.3-.365,1.64,1.64,0,0,1,.4-2.376,2.941,2.941,0,0,1,1.68-.624c.108-.018.187.1.2.164l.079.726c.013.1-.051.248-.141.251a2.472,2.472,0,0,0-1.173.357.459.459,0,0,0-.126.628c.187.225.511.244,1.153.04a2.092,2.092,0,0,1,2.379.366,1.736,1.736,0,0,1-.39,2.45,2.51,2.51,0,0,1-1.757.668C1074.228-1402.477,1074.189-1402.486,1074.167-1402.612Z" transform="translate(-989.844 1427.942)" fill="#161615"/>
        <path id="Tracé_126" data-name="Tracé 126" d="M1102.648-1422.6l-2.167-5.45a.16.16,0,0,1,.029-.157l.054-.058a.16.16,0,0,1,.156-.038l5.564,1.855a.139.139,0,0,1,.057.239l-.6.637a.265.265,0,0,1-.333.065l-.649-.222-1.476,1.562.264.641a.3.3,0,0,1-.057.337l-.6.632A.139.139,0,0,1,1102.648-1422.6Zm1-3.522-1.36-.459-.005.006.541,1.326Z" transform="translate(-1013.572 1444.587)" fill="#161615"/>
        <path id="Tracé_127" data-name="Tracé 127" d="M1118.433-1457.9a.15.15,0,0,1-.033-.21l1.086-1.487a1.589,1.589,0,0,1,2.19-.5,1.572,1.572,0,0,1,.467,1.477,1.494,1.494,0,0,1,1.665-.1,1.612,1.612,0,0,1,.215,2.291l-1.156,1.583a.15.15,0,0,1-.21.033Zm2.782-.257a.563.563,0,0,0-.133-.782.536.536,0,0,0-.76.13l-.364.5.893.653Zm1.8,1.19a.573.573,0,0,0-.13-.8.631.631,0,0,0-.829.2l-.378.517.912.667Z" transform="translate(-1028.327 1471.004)" fill="#161615"/>
        <path id="Tracé_128" data-name="Tracé 128" d="M1137.963-1479.995a.15.15,0,0,1-.057-.2l.464-.818a.156.156,0,0,1,.2-.056l3.67,2.084.929-1.636a.15.15,0,0,1,.2-.056l.749.425a.15.15,0,0,1,.056.2l-1.467,2.584a.15.15,0,0,1-.2.057Z" transform="translate(-1044.415 1488.098)" fill="#161615"/>
        <path id="Tracé_129" data-name="Tracé 129" d="M1152.068-1516.779a.15.15,0,0,1-.079-.2l1.284-3.009a.15.15,0,0,1,.2-.079l.792.338a.15.15,0,0,1,.079.2l-.859,2.013.9.385.707-1.657a.155.155,0,0,1,.2-.079l.792.338a.15.15,0,0,1,.079.2l-.707,1.657.981.419.859-2.013a.15.15,0,0,1,.2-.079l.792.338a.15.15,0,0,1,.079.2l-1.284,3.009a.15.15,0,0,1-.2.079Z" transform="translate(-1056.03 1520.236)" fill="#161615"/>
      </g>
    </g>
  </g>
</svg>
