<svg xmlns="http://www.w3.org/2000/svg" width="104.786" height="100" viewBox="0 0 104.786 100">
  <g id="Groupe_64" data-name="Groupe 64" transform="translate(1269.683 -679.177)">
    <g id="Groupe_59" data-name="Groupe 59" transform="translate(-1237.493 703.245)">
      <path id="Tracé_42" data-name="Tracé 42" d="M-1019.546,884.605l-9.718-25.415-.307-.8-4.619-12.079V835.836h-11.073v10.473l-12.893,33.72h0v0l-.085.223-1.664,4.351a3.713,3.713,0,0,0,.709,3.816,3.665,3.665,0,0,0,2.768,1.235h33.405a3.724,3.724,0,0,0,3.067-1.612A3.725,3.725,0,0,0-1019.546,884.605Zm-1.51-1.11h0a1.771,1.771,0,0,1-1.058.318,1.771,1.771,0,0,1-1.057-.317,2.76,2.76,0,0,0-1.572-.458,2.764,2.764,0,0,0-1.572.458,1.771,1.771,0,0,1-1.058.318,1.77,1.77,0,0,1-1.057-.317,2.761,2.761,0,0,0-1.572-.458,2.764,2.764,0,0,0-1.573.458,1.769,1.769,0,0,1-1.057.317,1.771,1.771,0,0,1-1.057-.317,2.763,2.763,0,0,0-1.573-.458,2.762,2.762,0,0,0-1.572.458,2.514,2.514,0,0,1-.445.224,21.849,21.849,0,0,0-3.607-2.374,2.113,2.113,0,0,1,.364-.029,1.773,1.773,0,0,1,1.058.317,2.764,2.764,0,0,0,1.572.457,2.761,2.761,0,0,0,1.572-.457,1.774,1.774,0,0,1,1.057-.317,1.773,1.773,0,0,1,1.058.317,2.765,2.765,0,0,0,1.572.457,2.764,2.764,0,0,0,1.572-.457,1.774,1.774,0,0,1,1.058-.317,1.774,1.774,0,0,1,1.057.317,2.761,2.761,0,0,0,1.572.457,2.765,2.765,0,0,0,1.573-.457,1.773,1.773,0,0,1,1.057-.317,1.773,1.773,0,0,1,1.057.317,2.762,2.762,0,0,0,1.572.457,3.183,3.183,0,0,0,.506-.039Zm-23.192-37v-9.644h9.044V846.5l4.543,11.882h-5.326a.507.507,0,0,0-.507.507.507.507,0,0,0,.507.507h5.714l8.29,21.68c-.043,0-.085,0-.131,0a1.771,1.771,0,0,1-1.057-.317,2.763,2.763,0,0,0-1.572-.457,2.763,2.763,0,0,0-1.572.457,1.774,1.774,0,0,1-1.058.317,1.773,1.773,0,0,1-1.057-.317A2.761,2.761,0,0,0-1030,880.3a2.765,2.765,0,0,0-1.573.457,1.773,1.773,0,0,1-1.057.317,1.771,1.771,0,0,1-1.057-.317,2.766,2.766,0,0,0-1.573-.457,2.762,2.762,0,0,0-1.572.457,1.772,1.772,0,0,1-1.057.317,1.772,1.772,0,0,1-1.057-.317,2.767,2.767,0,0,0-1.573-.457,2.762,2.762,0,0,0-1.57.456,21.69,21.69,0,0,0-2.8-1.036V875.5a3.638,3.638,0,0,0,2.636,1.129v-1.014a2.639,2.639,0,0,1-2.636-2.632v-2.049a3.64,3.64,0,0,0,2.636,1.129v-1.014a2.639,2.639,0,0,1-2.636-2.632v0h-1.015a2.639,2.639,0,0,1-2.636,2.636v1.014a3.639,3.639,0,0,0,2.636-1.129v2.045h0a2.639,2.639,0,0,1-2.636,2.636v1.014a3.64,3.64,0,0,0,2.636-1.129v3.949a21.9,21.9,0,0,0-5.134-.6,21.872,21.872,0,0,0-5.883.8Zm-12.181,42.146q-.1,0-.2-.008h-.009a2.735,2.735,0,0,1-.4-.06h-.005c-.064-.015-.128-.032-.191-.051h0a2.636,2.636,0,0,1-.365-.143l-.016-.008a2.61,2.61,0,0,1-.331-.193l-.01-.007a14.3,14.3,0,0,1,6.011-1.749q.452-.028.908-.029a14.356,14.356,0,0,1,3.6.456q.251.065.5.139h0a14.2,14.2,0,0,1,3.614,1.654Zm14.85,0a15.218,15.218,0,0,0-5.072-2.626,15.2,15.2,0,0,0-1.618-.388,15.444,15.444,0,0,0-2.773-.25,15.325,15.325,0,0,0-7.65,2.041,2.7,2.7,0,0,1-.282-2.4,17.384,17.384,0,0,1,7.932-1.888,17.446,17.446,0,0,1,7.435,1.643l.076.035a17.619,17.619,0,0,1,3.147,1.915h0a17.738,17.738,0,0,1,2.136,1.922Zm4.692,0a18.756,18.756,0,0,0-2.882-2.729h0a18.623,18.623,0,0,0-3.407-2.062l-.1-.048h0a18.452,18.452,0,0,0-7.762-1.691,18.688,18.688,0,0,0-7.412,1.535l1.073-2.806a20.825,20.825,0,0,1,6.339-.981,20.665,20.665,0,0,1,8.764,1.924,20.825,20.825,0,0,1,4.557,2.88,21.108,21.108,0,0,1,2.059,1.959,21,21,0,0,1,1.632,2.017Zm16.093-1.172a2.672,2.672,0,0,1-2.231,1.173h-9.776q-.436-.656-.918-1.282a2.723,2.723,0,0,0,1.085.2,2.762,2.762,0,0,0,1.572-.457,1.775,1.775,0,0,1,1.058-.317,1.773,1.773,0,0,1,1.057.317,2.762,2.762,0,0,0,1.572.457,2.766,2.766,0,0,0,1.573-.457,1.773,1.773,0,0,1,1.057-.317,1.772,1.772,0,0,1,1.057.317,2.763,2.763,0,0,0,1.572.457,2.721,2.721,0,0,0,1.516-.424A2.8,2.8,0,0,1-1020.793,887.47Zm-.264-1.238a1.774,1.774,0,0,1-1.057.317,1.771,1.771,0,0,1-1.057-.317,2.765,2.765,0,0,0-1.572-.457,2.762,2.762,0,0,0-1.572.457,1.775,1.775,0,0,1-1.058.317,1.773,1.773,0,0,1-1.057-.317,2.764,2.764,0,0,0-1.572-.457,2.766,2.766,0,0,0-1.573.457,1.773,1.773,0,0,1-1.057.317,1.771,1.771,0,0,1-1.057-.317,2.765,2.765,0,0,0-1.375-.451c-.436-.466-.894-.916-1.371-1.344l.116-.068a1.771,1.771,0,0,1,1.057-.317,1.772,1.772,0,0,1,1.058.317,2.762,2.762,0,0,0,1.572.458,2.761,2.761,0,0,0,1.572-.458,1.772,1.772,0,0,1,1.058-.317,1.77,1.77,0,0,1,1.057.317,2.761,2.761,0,0,0,1.572.458,2.763,2.763,0,0,0,1.573-.458,1.771,1.771,0,0,1,1.057-.317,1.77,1.77,0,0,1,1.057.317,2.762,2.762,0,0,0,1.572.458,2.677,2.677,0,0,0,1.425-.372l.2.512a2.731,2.731,0,0,1,.181.919A3.172,3.172,0,0,0-1021.057,886.232Z" transform="translate(1060.152 -835.836)" fill="#f9f3ed"/>
      <path id="Tracé_43" data-name="Tracé 43" d="M-955.7,967.8h6.319a.507.507,0,0,0,.507-.507.507.507,0,0,0-.507-.507H-955.7a.507.507,0,0,0-.507.507A.507.507,0,0,0-955.7,967.8Z" transform="translate(972.174 -946.664)" fill="#f9f3ed"/>
      <path id="Tracé_44" data-name="Tracé 44" d="M-899.025,967.8h2.22a.507.507,0,0,0,.507-.507.507.507,0,0,0-.507-.507h-2.22a.507.507,0,0,0-.507.507A.507.507,0,0,0-899.025,967.8Z" transform="translate(924.208 -946.664)" fill="#f9f3ed"/>
      <path id="Tracé_45" data-name="Tracé 45" d="M-933.421,982.565h-2.22a.507.507,0,0,0-.507.507.507.507,0,0,0,.507.507h2.22a.507.507,0,0,0,.507-.507A.507.507,0,0,0-933.421,982.565Z" transform="translate(955.199 -960.023)" fill="#f9f3ed"/>
      <path id="Tracé_46" data-name="Tracé 46" d="M-910.827,1035.376a2.639,2.639,0,0,1,2.636,2.636h1.014a2.639,2.639,0,0,1,2.636-2.636v-1.014a3.651,3.651,0,0,0-3.143,1.8,3.652,3.652,0,0,0-3.143-1.8Z" transform="translate(933.768 -1003.862)" fill="#f9f3ed"/>
    </g>
    <g id="Groupe_60" data-name="Groupe 60" transform="translate(-1269.683 679.177)">
      <path id="Tracé_47" data-name="Tracé 47" d="M-1267.8,962.214l-.265,2.065a.258.258,0,0,1-.289.224l-1.107-.142a.258.258,0,0,1-.223-.289l.755-5.9a.259.259,0,0,1,.289-.224l1.107.142a.258.258,0,0,1,.224.289l-.265,2.065,7.572.97a.268.268,0,0,1,.224.289l-.161,1.255a.268.268,0,0,1-.289.224Z" transform="translate(1269.683 -915.12)" fill="#f9f3ed"/>
      <path id="Tracé_48" data-name="Tracé 48" d="M-1255.8,882.863a.268.268,0,0,1-.148-.334l.456-1.181a.259.259,0,0,1,.334-.148l3.364,1.3,1.6-4.138-3.364-1.3a.258.258,0,0,1-.148-.334l.45-1.168a.268.268,0,0,1,.334-.148l8.4,3.243a.268.268,0,0,1,.148.334l-.451,1.168a.258.258,0,0,1-.334.148l-3.5-1.352-1.6,4.138,3.5,1.352a.259.259,0,0,1,.148.334l-.456,1.181a.268.268,0,0,1-.334.148Z" transform="translate(1258.068 -845.25)" fill="#f9f3ed"/>
      <path id="Tracé_49" data-name="Tracé 49" d="M-1215.775,811.37a.258.258,0,0,1-.06-.361l3.224-4.5a.258.258,0,0,1,.361-.06l.907.65a.258.258,0,0,1,.06.361l-2.345,3.275,1.815,1.3,1.957-2.733a.268.268,0,0,1,.361-.059l.918.657a.259.259,0,0,1,.06.361l-1.957,2.733,1.936,1.386,2.345-3.275a.258.258,0,0,1,.361-.06l.907.649a.259.259,0,0,1,.06.361l-3.224,4.5a.258.258,0,0,1-.361.06Z" transform="translate(1224.149 -786.853)" fill="#f9f3ed"/>
      <path id="Tracé_50" data-name="Tracé 50" d="M-1114.435,722.323a5.144,5.144,0,0,1,3.5-.635.264.264,0,0,1,.209.319l-.265,1.194a.232.232,0,0,1-.3.183,3.084,3.084,0,0,0-2.167.388,3.12,3.12,0,0,0-.976,4.279,3.1,3.1,0,0,0,4.232,1.083A4.257,4.257,0,0,0-1109,728l-.6-.99-.932.563a.248.248,0,0,1-.348-.076l-.556-.92a.25.25,0,0,1,.088-.355l2.236-1.352a.256.256,0,0,1,.344.095l1.8,2.981a.261.261,0,0,1,.02.243,6.875,6.875,0,0,1-2.431,2.5,4.852,4.852,0,0,1-6.7-1.642A4.887,4.887,0,0,1-1114.435,722.323Z" transform="translate(1140.28 -715.095)" fill="#f9f3ed"/>
      <path id="Tracé_51" data-name="Tracé 51" d="M-962.218,679.721a.258.258,0,0,1,.246-.271l5.531-.273a.258.258,0,0,1,.271.245l.055,1.115a.258.258,0,0,1-.246.271l-4.023.2.11,2.229,3.357-.166a.268.268,0,0,1,.271.246l.056,1.128a.258.258,0,0,1-.245.271l-3.357.166.118,2.379,4.023-.2a.258.258,0,0,1,.271.246l.055,1.114a.258.258,0,0,1-.245.271l-5.532.273a.259.259,0,0,1-.271-.246Z" transform="translate(1009.454 -679.177)" fill="#f9f3ed"/>
      <path id="Tracé_52" data-name="Tracé 52" d="M-894.072,682.3a.258.258,0,0,1,.3-.21l5.454.96a.258.258,0,0,1,.21.3l-.193,1.1a.258.258,0,0,1-.3.21l-3.967-.7-.387,2.2,3.31.583a.267.267,0,0,1,.21.3l-.2,1.112a.259.259,0,0,1-.3.21l-3.31-.583-.413,2.345,3.966.7a.258.258,0,0,1,.21.3l-.193,1.1a.258.258,0,0,1-.3.21l-5.454-.96a.258.258,0,0,1-.21-.3Z" transform="translate(953.103 -681.639)" fill="#f9f3ed"/>
      <path id="Tracé_53" data-name="Tracé 53" d="M-829.96,699.644a.256.256,0,0,1,.337-.115l.309.141,2.647,7.824.012.006,2.337-5.111a.258.258,0,0,1,.343-.128l1.139.521a.268.268,0,0,1,.128.343l-3.808,8.328a.256.256,0,0,1-.337.115l-.3-.136-2.575-8.046-.012-.006-2.433,5.321a.258.258,0,0,1-.343.128l-1.126-.515a.268.268,0,0,1-.128-.343Z" transform="translate(900.757 -696.382)" fill="#f9f3ed"/>
      <path id="Tracé_54" data-name="Tracé 54" d="M-721.715,781.977a.258.258,0,0,1,.365.017l.843.925a.268.268,0,0,1-.017.365l-5.645,5.14,2.336,2.566a.258.258,0,0,1-.017.365l-.825.751a.259.259,0,0,1-.365-.017l-3.353-3.682a.259.259,0,0,1,.017-.365Z" transform="translate(811.609 -766.127)" fill="#f9f3ed"/>
      <path id="Tracé_55" data-name="Tracé 55" d="M-694.836,855.949l10.062-.73a.244.244,0,0,1,.243.13l.066.119a.232.232,0,0,1-.019.275l-5.984,8.1a.24.24,0,0,1-.422-.031l-.573-1.036a.391.391,0,0,1,.047-.477l.963-1.295-1.97-3.56-1.609.128a.411.411,0,0,1-.429-.214l-.573-1.036A.24.24,0,0,1-694.836,855.949Zm5.382,3.74,1.961-2.64-.02-.036-3.265.282Z" transform="translate(783.35 -828.173)" fill="#f9f3ed"/>
      <path id="Tracé_56" data-name="Tracé 56" d="M-651.776,915.011a.258.258,0,0,1,.317.182l.81,3.009a2.666,2.666,0,0,1-1.684,3.427,2.591,2.591,0,0,1-2.478-.883,2.445,2.445,0,0,1-1.682,2.285,2.751,2.751,0,0,1-3.307-2.182l-.856-3.18a.259.259,0,0,1,.182-.317Zm-6.513,5.276a1.214,1.214,0,0,0,1.514.861,1.318,1.318,0,0,0,.782-1.648l-.385-1.432-2.339.63Zm3.735-1.2a1.166,1.166,0,0,0,1.487.812,1.111,1.111,0,0,0,.813-1.431l-.379-1.406-2.3.619Z" transform="translate(754.23 -878.772)" fill="#f9f3ed"/>
      <path id="Tracé_57" data-name="Tracé 57" d="M-1035.052,699.8a.224.224,0,0,0,.047-.409,9.122,9.122,0,0,1-2.988-2.732l.02-.007a3,3,0,0,0,1.151-3.2,2.944,2.944,0,0,0-3.67-1.963l-3.729,1.1a.258.258,0,0,0-.175.321l2.551,8.63a.258.258,0,0,0,.321.174l1.2-.354a.259.259,0,0,0,.175-.321l-.983-3.324,1.442-.426a10.848,10.848,0,0,0,2.747,2.943.317.317,0,0,0,.277.047Zm-7.245-6.08,2.125-.628a1.352,1.352,0,0,1,1.664.883,1.384,1.384,0,0,1-.9,1.711l-2.125.628Z" transform="translate(1079.015 -689.492)" fill="#f9f3ed"/>
    </g>
    <g id="Groupe_61" data-name="Groupe 61" transform="translate(-1258.081 753.073)">
      <path id="Tracé_58" data-name="Tracé 58" d="M-1194,1161.637l.574-.012a.155.155,0,0,1,.136.157,1.8,1.8,0,0,0,.152.9.377.377,0,0,0,.523.173c.217-.129.276-.409.206-.844a1.566,1.566,0,0,1,.548-1.684,1.249,1.249,0,0,1,1.74.584,2.24,2.24,0,0,1,.27,1.338c0,.084-.1.129-.147.13l-.555-.027c-.078,0-.18-.068-.172-.136a1.885,1.885,0,0,0-.129-.925.349.349,0,0,0-.458-.169c-.192.114-.244.355-.167.863a1.594,1.594,0,0,1-.559,1.747,1.323,1.323,0,0,1-1.8-.585,1.911,1.911,0,0,1-.293-1.4C-1194.108,1161.667-1194.1,1161.639-1194,1161.637Z" transform="translate(1194.163 -1160.171)" fill="#f9f3ed"/>
      <path id="Tracé_59" data-name="Tracé 59" d="M-1175.767,1182.716a.118.118,0,0,1,.16.022l.433.571a.114.114,0,0,1-.022.16l-1.208.917,1.041,1.372,1.208-.917a.115.115,0,0,1,.16.022l.433.571a.118.118,0,0,1-.022.16l-3.174,2.41a.118.118,0,0,1-.16-.022l-.433-.571a.114.114,0,0,1,.022-.16l1.261-.957-1.041-1.372-1.261.957a.114.114,0,0,1-.16-.022l-.433-.571a.119.119,0,0,1,.022-.16Z" transform="translate(1181.318 -1179.234)" fill="#f9f3ed"/>
      <path id="Tracé_60" data-name="Tracé 60" d="M-1146.6,1215.519a2.164,2.164,0,0,1-.024,3.07,2.154,2.154,0,0,1-3.061-.024,2.149,2.149,0,0,1,.019-3.057A2.159,2.159,0,0,1-1146.6,1215.519Zm-2.4,2.369a1.207,1.207,0,0,0,1.7.015,1.214,1.214,0,0,0,.015-1.708,1.212,1.212,0,0,0-1.7,0A1.206,1.206,0,0,0-1149,1217.888Z" transform="translate(1157.048 -1206.47)" fill="#f9f3ed"/>
      <path id="Tracé_61" data-name="Tracé 61" d="M-1122.587,1236.673a.115.115,0,0,1,.161-.018l1.133.906a1.347,1.347,0,0,1,.223,1.881,1.354,1.354,0,0,1-1.895.22l-.494-.395-.883,1.105a.119.119,0,0,1-.161.018l-.555-.444a.114.114,0,0,1-.018-.161Zm.124,2.265a.473.473,0,0,0,.669-.075.46.46,0,0,0-.094-.645l-.447-.357-.575.719Z" transform="translate(1135.711 -1224.884)" fill="#f9f3ed"/>
      <path id="Tracé_62" data-name="Tracé 62" d="M-1097.549,1254.28a.115.115,0,0,1,.158-.035l1.221.784a1.346,1.346,0,0,1,.416,1.848,1.355,1.355,0,0,1-1.862.415l-.532-.342-.764,1.191a.119.119,0,0,1-.158.034l-.6-.384a.114.114,0,0,1-.034-.158Zm.358,2.24a.473.473,0,0,0,.657-.143.459.459,0,0,0-.16-.632l-.481-.309-.5.775Z" transform="translate(1114.229 -1239.777)" fill="#f9f3ed"/>
      <path id="Tracé_63" data-name="Tracé 63" d="M-1070.938,1269.34a.118.118,0,0,1,.154-.048l.639.336a.118.118,0,0,1,.048.155l-1.857,3.527a.118.118,0,0,1-.155.048l-.639-.337a.118.118,0,0,1-.048-.154Z" transform="translate(1091.451 -1252.517)" fill="#f9f3ed"/>
      <path id="Tracé_64" data-name="Tracé 64" d="M-1051.925,1277.6a.113.113,0,0,1,.147-.057l.14.057,1.358,3.045.006,0,.8-1.981a.114.114,0,0,1,.149-.063l.67.271a.118.118,0,0,1,.063.149l-1.522,3.756a.114.114,0,0,1-.147.057l-.089-.036a.176.176,0,0,1-.061-.057l-1.307-3.109-.005,0-.844,2.082a.115.115,0,0,1-.149.063l-.664-.269a.119.119,0,0,1-.063-.149Z" transform="translate(1075.068 -1259.504)" fill="#f9f3ed"/>
      <path id="Tracé_65" data-name="Tracé 65" d="M-1012.6,1292.857a2.324,2.324,0,0,1,1.275.924.105.105,0,0,1-.03.16l-.59.367a.127.127,0,0,1-.158-.036,1.109,1.109,0,0,0-.688-.482,1.207,1.207,0,0,0-1.459.871,1.2,1.2,0,0,0,.845,1.464,1.424,1.424,0,0,0,.543.044l.09-.337-.367-.1a.11.11,0,0,1-.083-.134l.153-.576a.11.11,0,0,1,.14-.081l1.17.311a.114.114,0,0,1,.075.139l-.41,1.567a.148.148,0,0,1-.071.081,3.044,3.044,0,0,1-1.544-.005,2.147,2.147,0,0,1-1.536-2.639A2.158,2.158,0,0,1-1012.6,1292.857Z" transform="translate(1042.795 -1272.41)" fill="#f9f3ed"/>
      <path id="Tracé_66" data-name="Tracé 66" d="M-957.784,1301.3a.114.114,0,0,1,.123-.1l1.794.145a1.309,1.309,0,0,1,1.2,1.4,1.321,1.321,0,0,1-.985,1.135l.7,1.59a.114.114,0,0,1-.116.166l-.8-.065a.111.111,0,0,1-.092-.062l-.67-1.655-.414-.033-.124,1.53a.118.118,0,0,1-.123.1l-.714-.057a.114.114,0,0,1-.1-.123Zm1.694,1.828a.483.483,0,0,0,.495-.444.461.461,0,0,0-.419-.493l-.888-.072-.076.936Z" transform="translate(994.371 -1279.531)" fill="#f9f3ed"/>
      <path id="Tracé_67" data-name="Tracé 67" d="M-923.613,1302.207a.114.114,0,0,1,.11-.119l2.491-.1a.114.114,0,0,1,.119.11l.026.656a.114.114,0,0,1-.109.119l-1.667.068.03.746,1.372-.056a.119.119,0,0,1,.119.11l.026.656a.114.114,0,0,1-.109.119l-1.372.056.033.812,1.666-.068a.115.115,0,0,1,.119.11l.026.656a.114.114,0,0,1-.11.119l-2.491.1a.115.115,0,0,1-.119-.11Z" transform="translate(965.178 -1280.2)" fill="#f9f3ed"/>
      <path id="Tracé_68" data-name="Tracé 68" d="M-895.027,1303.156l.209-.535a.155.155,0,0,1,.2-.065,1.8,1.8,0,0,0,.893.207.377.377,0,0,0,.36-.416c-.036-.25-.272-.411-.7-.514-.541-.129-1.242-.437-1.344-1.152a1.249,1.249,0,0,1,1.207-1.382,2.236,2.236,0,0,1,1.339.265.153.153,0,0,1,.063.186l-.238.5c-.032.071-.132.141-.192.106a1.892,1.892,0,0,0-.9-.236.349.349,0,0,0-.332.358c.031.22.234.362.732.485s1.282.377,1.4,1.187a1.323,1.323,0,0,1-1.23,1.434,1.911,1.911,0,0,1-1.406-.267C-895.042,1303.267-895.063,1303.246-895.027,1303.156Z" transform="translate(941.318 -1277.908)" fill="#f9f3ed"/>
      <path id="Tracé_69" data-name="Tracé 69" d="M-867.3,1294.131a.114.114,0,0,1,.083-.139l1.408-.35a1.346,1.346,0,0,1,1.63.965,1.354,1.354,0,0,1-.976,1.639l-.613.153.341,1.373a.118.118,0,0,1-.083.139l-.689.171a.114.114,0,0,1-.139-.083Zm1.875,1.277a.473.473,0,0,0,.347-.576.459.459,0,0,0-.569-.318l-.555.138.222.894Z" transform="translate(917.522 -1273.103)" fill="#f9f3ed"/>
      <path id="Tracé_70" data-name="Tracé 70" d="M-835.911,1283.367a2.164,2.164,0,0,1,2.8,1.264,2.153,2.153,0,0,1-1.261,2.789,2.148,2.148,0,0,1-2.787-1.255A2.159,2.159,0,0,1-835.911,1283.367Zm1.195,3.153a1.206,1.206,0,0,0,.7-1.547,1.213,1.213,0,0,0-1.555-.7,1.212,1.212,0,0,0-.691,1.556A1.2,1.2,0,0,0-834.716,1286.519Z" transform="translate(892.131 -1264.319)" fill="#f9f3ed"/>
      <path id="Tracé_71" data-name="Tracé 71" d="M-805.131,1265.754a.113.113,0,0,1,.049-.15l.133-.071,3.21.9.005,0-1.012-1.882a.114.114,0,0,1,.047-.155l.636-.342a.118.118,0,0,1,.155.047l1.919,3.569a.113.113,0,0,1-.049.149l-.085.046a.176.176,0,0,1-.083.01l-3.226-.979-.005,0,1.063,1.978a.114.114,0,0,1-.047.155l-.631.339a.118.118,0,0,1-.155-.047Z" transform="translate(864.908 -1248.08)" fill="#f9f3ed"/>
      <path id="Tracé_72" data-name="Tracé 72" d="M-770.58,1254.2l-.052-.572a.155.155,0,0,1,.148-.146,1.8,1.8,0,0,0,.891-.216.377.377,0,0,0,.135-.533c-.144-.208-.427-.246-.856-.146a1.567,1.567,0,0,1-1.718-.427,1.249,1.249,0,0,1,.459-1.777,2.238,2.238,0,0,1,1.316-.364c.083-.007.135.089.14.137l.012.556c0,.078-.055.185-.123.181a1.888,1.888,0,0,0-.913.194.349.349,0,0,0-.137.469c.127.183.372.218.872.106a1.594,1.594,0,0,1,1.782.434,1.323,1.323,0,0,1-.457,1.834,1.913,1.913,0,0,1-1.377.392C-770.543,1254.309-770.572,1254.3-770.58,1254.2Z" transform="translate(837.059 -1236.217)" fill="#f9f3ed"/>
      <path id="Tracé_73" data-name="Tracé 73" d="M-743.543,1238.322l-1.224-4.3a.123.123,0,0,1,.034-.117l.046-.039a.122.122,0,0,1,.121-.017l4.076,1.833a.106.106,0,0,1,.025.186l-.506.437a.2.2,0,0,1-.258.024l-.475-.218-1.239,1.071.151.506a.224.224,0,0,1-.069.251l-.5.433A.106.106,0,0,1-743.543,1238.322Zm1.029-2.593-1-.452,0,0,.308,1.047Z" transform="translate(813.811 -1222.523)" fill="#f9f3ed"/>
      <path id="Tracé_74" data-name="Tracé 74" d="M-727.318,1210.641a.114.114,0,0,1-.006-.162l.954-1.028a1.211,1.211,0,0,1,1.7-.187,1.2,1.2,0,0,1,.222,1.159,1.138,1.138,0,0,1,1.268.076,1.228,1.228,0,0,1-.041,1.753l-1.016,1.094a.114.114,0,0,1-.162.006Zm2.128.053a.429.429,0,0,0-.031-.6.409.409,0,0,0-.587.03l-.319.344.618.573Zm1.258,1.061a.437.437,0,0,0-.027-.617.481.481,0,0,0-.645.075l-.332.357.631.586Z" transform="translate(799.071 -1201.493)" fill="#f9f3ed"/>
      <path id="Tracé_75" data-name="Tracé 75" d="M-707.435,1192.878a.114.114,0,0,1-.022-.16l.433-.571a.118.118,0,0,1,.16-.022l2.563,1.941.865-1.142a.114.114,0,0,1,.16-.022l.523.4a.115.115,0,0,1,.022.16l-1.367,1.8a.114.114,0,0,1-.16.022Z" transform="translate(782.25 -1187.197)" fill="#f9f3ed"/>
      <path id="Tracé_76" data-name="Tracé 76" d="M-692.127,1163.046a.115.115,0,0,1-.038-.158l1.3-2.126a.114.114,0,0,1,.157-.038l.56.343a.114.114,0,0,1,.038.157l-.871,1.422.637.39.717-1.171a.118.118,0,0,1,.157-.038l.56.343a.114.114,0,0,1,.038.157l-.717,1.171.693.425.871-1.423a.114.114,0,0,1,.157-.038l.56.342a.115.115,0,0,1,.038.158l-1.3,2.126a.114.114,0,0,1-.157.037Z" transform="translate(769.302 -1160.625)" fill="#f9f3ed"/>
    </g>
    <g id="Groupe_62" data-name="Groupe 62" transform="translate(-1269.237 738.946)">
      <path id="Tracé_77" data-name="Tracé 77" d="M-1266.273,1069.231h6.319a.507.507,0,0,0,.507-.507.507.507,0,0,0-.507-.507h-6.319a.507.507,0,0,0-.507.507A.507.507,0,0,0-1266.273,1069.231Z" transform="translate(1266.78 -1068.217)" fill="#f9f3ed"/>
      <path id="Tracé_78" data-name="Tracé 78" d="M-1209.6,1069.231h2.22a.507.507,0,0,0,.507-.507.507.507,0,0,0-.507-.507h-2.22a.507.507,0,0,0-.507.507A.507.507,0,0,0-1209.6,1069.231Z" transform="translate(1218.815 -1068.217)" fill="#f9f3ed"/>
      <path id="Tracé_79" data-name="Tracé 79" d="M-1212.11,1083.526h-6.319a.507.507,0,0,0-.507.507.507.507,0,0,0,.507.507h6.319a.507.507,0,0,0,.507-.507A.508.508,0,0,0-1212.11,1083.526Z" transform="translate(1226.286 -1081.174)" fill="#f9f3ed"/>
      <path id="Tracé_80" data-name="Tracé 80" d="M-1246.2,1083.526h-2.22a.507.507,0,0,0-.507.507.507.507,0,0,0,.507.507h2.22a.507.507,0,0,0,.507-.507A.507.507,0,0,0-1246.2,1083.526Z" transform="translate(1251.671 -1081.174)" fill="#f9f3ed"/>
    </g>
    <g id="Groupe_63" data-name="Groupe 63" transform="translate(-1179.58 738.946)">
      <path id="Tracé_81" data-name="Tracé 81" d="M-628.526,1069.231h-6.319a.507.507,0,0,1-.507-.507.507.507,0,0,1,.507-.507h6.319a.507.507,0,0,1,.507.507A.507.507,0,0,1-628.526,1069.231Z" transform="translate(642.702 -1068.217)" fill="#f9f3ed"/>
      <path id="Tracé_82" data-name="Tracé 82" d="M-662.617,1069.231h-2.22a.507.507,0,0,1-.507-.507.507.507,0,0,1,.507-.507h2.22a.507.507,0,0,1,.507.507A.507.507,0,0,1-662.617,1069.231Z" transform="translate(668.086 -1068.217)" fill="#f9f3ed"/>
      <path id="Tracé_83" data-name="Tracé 83" d="M-682.688,1083.526h6.319a.507.507,0,0,1,.507.507.507.507,0,0,1-.507.507h-6.319a.507.507,0,0,1-.507-.507A.507.507,0,0,1-682.688,1083.526Z" transform="translate(683.195 -1081.174)" fill="#f9f3ed"/>
      <path id="Tracé_84" data-name="Tracé 84" d="M-626.016,1083.526h2.22a.507.507,0,0,1,.507.507.507.507,0,0,1-.507.507h-2.22a.507.507,0,0,1-.507-.507A.507.507,0,0,1-626.016,1083.526Z" transform="translate(635.23 -1081.174)" fill="#f9f3ed"/>
    </g>
    <circle id="Ellipse_37" data-name="Ellipse 37" cx="1.102" cy="1.102" r="1.102" transform="translate(-1174.167 726.294)" fill="#f9f3ed"/>
  </g>
</svg>
